<?xml version="1.0" encoding="utf-8" ?><svg xmlns="http://www.w3.org/2000/svg" xmlns:xlink="http://www.w3.org/1999/xlink" width="400" height="400" viewBox="0 0 400 400"><path fill="#FEFFFE" d="M276.73 108.198C277.418 108.046 283.969 107.011 284.548 107.041L284.806 107.44C282.984 111.116 279.784 112.495 276.74 115.037C275.509 116.066 274.438 117.011 273.018 117.798C273.858 117.923 275.395 118.037 276.01 118.497C275.635 118.971 275.618 118.903 275.118 119.125C269.122 121.789 263.748 125.122 258.412 128.88C262.515 127.377 264.896 127.443 269.043 126.631C270.469 126.352 273.053 124.401 274.501 123.762C279.012 121.676 284.933 117.962 289.952 118.93C290.97 120.875 288.22 120.321 292.729 122.567C291.745 122.738 290.307 122.925 289.481 123.5C283.756 127.481 277.286 130.271 270.82 132.806C270.06 133.104 267.518 134.043 267.046 134.517C267.409 134.946 267.529 135.054 267.957 135.423C267.866 135.856 267.972 135.802 267.721 135.959C264.987 137.665 258.993 139.658 256.657 141.494L256.688 141.781C259.564 142.379 260.109 140.636 261.389 140.891C261.016 141.427 260.631 141.954 260.232 142.471C260.485 143.48 260.713 144.302 260.123 145.269C257.643 149.339 252.584 147.328 249.729 148.438C243.354 151.074 236.957 154.918 231.38 158.972C229.433 160.589 227.624 162.84 225.683 164.404C223.175 166.426 218.508 166.85 218.449 170.89C218.246 184.566 217.846 199.131 218.532 212.754C220.012 214.132 223.847 217.558 223.08 219.823C221.52 220.565 219.291 218.098 218.165 217.064C218.582 219.265 218.393 227.752 218.341 230.562C218.146 241.101 219.384 259.606 215.291 269.088C215.322 262.812 215.219 256.535 214.982 250.263L214.793 250.589C213.129 253.519 211.755 258.094 210.178 261.402C208.173 265.609 205.435 269.671 203.589 273.756C200.416 280.778 198.3 288.777 195.934 296.109C195.197 298.395 193.644 306.241 191.953 307.166C191.31 305.927 192.056 303.047 191.531 301.909C190.355 302.632 186.289 318.152 185.208 320.906C184.028 323.907 185.087 330.301 182.396 333.091L181.919 333.127C179.801 330.592 181.95 322.053 182.645 318.923C183.559 314.867 184.447 310.804 185.308 306.736C185.841 304.162 186.51 298.735 187.191 296.588C196.073 289.893 197 277.391 196.984 267.197L196.963 252.975L196.919 203.639C196.892 200.09 196.833 196.541 196.743 192.993C196.651 189.671 196.348 186.797 196.858 183.496C194.635 185.996 192.11 188.43 189.741 190.851C186.422 194.242 183.632 198.624 180.491 201.995C176.9 205.847 174.559 209.106 171.353 213.149C173.136 212.624 174.573 212.004 176.377 212.473L176.709 212.885C176.545 214.215 174.352 216.424 173.41 217.487C171.456 219.692 170.556 221.073 169.457 223.805C168.165 224.57 166.177 225.624 165.021 226.493C163.691 227.493 159.907 232.83 158.174 232.847L158.217 232.954L158.443 232.825L158.422 232.273L158.311 232.394C159.686 229.823 163.229 227.138 162.608 224.776C161.501 223.691 160.863 224.373 159.414 223.648C155.652 225.22 157.386 227.91 149.917 228.079L149.345 227.643C150.45 227.074 152.65 223.63 152.832 222.461L152.547 222.264C148.941 223.822 138.86 234.651 135.985 237.917C136.87 235.477 138.869 231.161 139.104 228.908L138.573 228.664C138.328 228.288 138.119 228.033 137.842 227.683C140.026 223.407 141.256 219.205 144.286 215.392C144.833 214.704 145.638 212.473 145.987 211.562C143.173 213.235 142.445 213.844 140.196 216.16C142.893 208.211 151.097 204.48 156.077 198.269C158.077 195.775 158.773 192.563 161.211 190.315C163.411 188.287 167.117 190.159 169.768 188.305C173.629 185.605 176.434 181.028 179.719 177.663C182.601 174.712 185.894 172.221 188.958 169.469C191.137 167.511 194.309 165.209 195.805 162.697C197.743 159.442 196.754 143.804 197.009 139.026C190.866 139.168 158.522 138.395 155.172 139.763L154.296 139.5C153.097 139.092 151.958 139.243 150.688 139.304C149.852 139.221 148.897 139.109 148.149 139.505C145.383 140.969 144.729 137.701 142.484 140.945C142.414 141.915 142.642 142.252 142.747 143.144C141.789 142.585 141.521 142.351 140.41 142.182C139.463 142.549 139.788 142.355 139.159 143.389L138.764 143.477C138.016 142.482 136.558 139.422 136.692 138.146L137.549 138.213C138.29 137.97 143.939 135.286 144.292 134.901L144.222 134.647C144.364 134.663 136.835 135.464 137.048 135.399L136.062 135.366C135.156 135.714 134.484 136.236 133.9 135.36C134.456 133.16 139.702 130.599 141.743 129.878C145.466 128.563 152.063 124.108 155.708 123.668C160.469 123.093 166.881 123.47 171.807 123.489L213.108 123.474L226.136 123.504C228.527 123.514 231.022 123.554 233.41 123.457C233.982 123.434 235.615 122.535 236.203 122.229C237.035 122.318 236.835 122.379 237.594 123.171C241.76 124.276 243.074 123.289 246.293 122.046C247.63 122.293 246.37 122.678 247.62 123.27C250.867 122.502 257.515 116.985 260.669 115.08C262.509 113.969 263.386 113.546 265.434 112.651C262.954 115.169 261.366 115.613 258.673 118.884C257.389 119.647 252.77 122.728 251.858 123.584L251.948 123.861C253.512 123.574 258.823 120.475 259.252 119.172C261.504 116.606 271.587 109.933 274.873 107.906C275.491 108.068 276.127 108.315 276.73 108.198ZM266.556 116.849C270.13 115.353 272.91 113.485 276.552 112.596L276.762 112.289C277.473 111.264 280.027 108.698 280.091 108.179L279.554 108.016L279.311 108.15C275.385 110.273 269.305 112.7 266.094 116.205L265.989 116.693L266.556 116.849ZM223.884 141.593C225.81 140.654 227.239 139.978 229.256 139.205C225.477 138.954 221.922 139.193 218.207 139.016C218.529 140.878 218.474 142.108 218.452 143.977C219.3 143.023 220.33 141.6 221.462 141.246C222.51 142.074 221.516 142.345 222.626 142.444L223.884 141.593Z"/><defs><linearGradient id="gradient_0" gradientUnits="userSpaceOnUse" x1="276.41266" y1="141.36655" x2="280.3316" y2="145.37758"><stop offset="0" stop-color="white" stop-opacity="0.90588236"/><stop offset="1" stop-color="white"/></linearGradient></defs><path fill="url(#gradient_0)" d="M292.98 131.686C293.651 131.708 293.613 131.679 294.141 132.086L294.199 132.632C293.082 134.694 289.475 135.663 288.64 136.718C284.794 141.579 281.45 143.347 276.245 146.654L263.951 154.529C263.449 154.74 263.642 154.707 263.104 154.654C263.694 152.736 278.464 144.082 280.724 141.779C284.915 137.507 287.722 134.655 292.98 131.686Z"/><path fill="#FEFFFE" d="M268.24 204.036C268.66 204.014 269.081 204.01 269.501 204.024C274.125 204.182 281.626 207.758 281.435 213.032C276.79 213.135 269.549 208.59 268.24 204.036Z"/><path fill="#FEFFFE" fill-opacity="0.96470588" d="M265.999 255.736L266.275 255.085C268.015 256.842 279.377 267.575 279.49 268.766C276.589 269.528 267.761 258.183 265.999 255.736Z"/><path fill="#FEFFFE" d="M175.481 263.099L176.191 263.411C178.085 265.695 180.091 272.832 179.939 275.901C176.593 275.28 175.802 265.797 175.481 263.099Z"/><path fill="#FEFFFE" d="M100.752 248.055L101.064 248.5C101.048 251.514 96.8964 254.151 94.4232 255.218C92.3673 252.059 98.095 248.648 100.752 248.055Z"/><path fill="#FEFFFE" fill-opacity="0.97254902" d="M119.483 174.263C119.859 174.216 119.726 174.229 120.117 174.348C119.531 175.75 106.688 181.332 104.884 182.094C104.539 182.136 104.657 182.095 104.237 181.871L104.393 181.506C110.878 177.075 112.113 176.635 119.483 174.263Z"/><path fill="#FEFFFE" d="M108.148 133.091C109.079 133.023 109.309 132.944 110.162 133.24L110.312 133.669C109.183 135.17 105.974 136.116 104.194 136.542C103.214 136.702 101.962 137.097 101.351 136.154C102.056 134.025 106.243 133.279 108.148 133.091Z"/><path fill="#FEFFFE" d="M182.558 169.671L183.105 169.805C183.856 171.863 178.902 175.464 177.123 176.317L176.559 175.933C175.956 173.52 180.641 170.52 182.558 169.671Z"/><path fill="#FEFFFE" fill-opacity="0.011764706" d="M150.688 139.304C151.958 139.243 153.097 139.092 154.296 139.5C153.107 140.27 152.027 139.975 151.189 140.856L151.031 141.747C150.468 143.727 147.241 143.758 145.859 145.764C144.81 145.038 143.881 144.116 142.944 143.246C143.026 143.028 143.214 142.677 143.322 142.457C144.22 142.483 145.269 143.361 146.128 143.922C147.383 142.815 149.472 141.837 149.872 140.888C149.541 140.146 149.517 140.343 148.529 139.891C149.422 139.289 149.616 139.793 150.688 139.304Z"/><path fill="#FEFFFE" d="M238.116 209.906C241.082 210.191 243.899 212.806 243.851 215.909C241.068 215.548 237.8 212.94 238.116 209.906Z"/><path fill="#FEFFFE" d="M286.274 215.917C288.431 216.379 292.567 218.602 292.382 221.119C289.658 221.042 285.14 219.369 286.274 215.917Z"/><path fill="#FEFFFE" fill-opacity="0.88627452" d="M154.352 167.258L154.521 167.328L154.462 167.598C149.607 170.809 143.861 172.729 138.752 175.504C137.293 176.297 135.926 176.997 134.322 177.456C134.149 177.34 134.246 177.431 134.141 177.103C139.791 173.427 148.306 170.341 154.352 167.258Z"/><path fill="#FEFFFE" d="M234.107 162.295C235.012 162.285 236.013 162.251 236.302 163.203C235.834 164.793 233.25 165.539 231.818 165.933C230.759 165.934 229.825 166.076 229.506 164.955C230.268 163.225 232.434 162.656 234.107 162.295Z"/><path fill="#FEFFFE" fill-opacity="0.94509804" d="M240.483 229.641C242.591 229.989 252.715 237.984 253.884 239.808C251.666 239.655 242.141 231.673 240.483 229.641Z"/><path fill="#FEFFFE" d="M287.289 272.928C289.971 273.135 293.61 274.757 293.04 278.006C290.559 277.298 286.996 276.059 287.289 272.928Z"/><path fill="#FEFFFE" fill-opacity="0.98431373" d="M148.529 139.891C149.517 140.343 149.541 140.146 149.872 140.888C149.472 141.837 147.383 142.815 146.128 143.922C145.269 143.361 144.22 142.483 143.322 142.457C143.214 142.677 143.026 143.028 142.944 143.246L142.747 143.144C142.642 142.252 142.414 141.915 142.484 140.945C142.831 140.964 142.732 140.947 143.009 140.994L143.76 141.12C146.4 141.622 146.34 140.332 148.529 139.891Z"/><path fill="#FEFFFE" d="M121.248 140.822C121.76 140.945 121.586 140.903 122.044 141.251L122.021 141.762C120.84 143.633 118.576 144.471 116.566 145.076C115.724 144.675 116.006 144.974 115.601 144.244C116.066 142.155 119.395 141.084 121.248 140.822Z"/><path fill="#FEFFFE" fill-opacity="0.98431373" d="M211.579 87.9338L212.308 88.1131L212.38 88.5723C211.624 90.5456 208.332 93.1121 206.647 94.388L206.195 94.4503L205.877 94.1163C206.042 92.0497 209.796 88.9244 211.579 87.9338Z"/><path fill="#FEFFFE" d="M230.31 238.823C233.266 239.762 234.281 242.827 234.051 245.664C231.128 244.559 230.212 241.69 230.31 238.823Z"/><path fill="#FEFFFE" fill-opacity="0.92156863" d="M156.291 232.769C157.839 234.135 158.522 234.474 159.436 236.305L159.362 236.723C158.2 236.664 157.287 235.774 156.376 235.029C155.004 237.465 153.379 239.716 152.078 242.019L151.663 241.726C153.006 238.606 154.83 235.88 156.291 232.769Z"/><path fill="#FEFFFE" d="M232.376 301.451C234.721 302.557 236.632 306.489 236.815 308.984C234.652 308.046 231.837 303.711 232.376 301.451Z"/><path fill="#FEFFFE" fill-opacity="0.94901961" d="M305.875 167.322C307.178 167.21 310.119 167.196 310.732 168.54C310.086 169.256 309.822 169.153 308.796 169.457C307.55 169.622 304.727 169.899 304.327 168.365C304.701 167.735 305.189 167.625 305.875 167.322Z"/><path fill="#FEFFFE" fill-opacity="0.023529412" d="M137.048 135.399C136.835 135.464 144.364 134.663 144.222 134.647L144.292 134.901C143.939 135.286 138.29 137.97 137.549 138.213C137.53 136.926 137.554 136.644 137.048 135.399Z"/><path fill="#FEFFFE" fill-opacity="0.86274511" d="M143.85 259.107L144.367 259.277C142.523 263.844 140.666 270.683 137.064 273.595C137.403 272.763 137.723 272.046 138.193 271.279C140.542 267.446 142.116 263.253 143.85 259.107Z"/><path fill="#FEFFFE" fill-opacity="0.98823529" d="M135.285 86.6154C138.005 87.1545 139.094 90.3397 139.899 92.6707C137.232 92.306 135.969 88.8621 135.285 86.6154Z"/><path fill="#FEFFFE" d="M232.147 259.861C234.542 260.339 235.394 263.043 235.699 265.168C233.167 264.816 232.181 262.119 232.147 259.861Z"/><path fill="#FEFFFE" fill-opacity="0.78823531" d="M145.344 254.893C146.606 251.024 149.978 245.473 151.663 241.726L152.078 242.019C150.544 245.374 147.527 251.999 145.787 255.077L145.344 254.893Z"/><path fill="#FEFFFE" fill-opacity="0.98039216" d="M116.849 183.328C117.716 183.266 118.316 183.112 119.039 183.538L119.013 183.933C118.152 184.805 117.32 185.053 116.198 185.507C115.067 185.773 114.652 185.968 113.692 185.502L113.664 184.997C114.632 183.718 115.341 183.63 116.849 183.328Z"/><path fill="#FEFFFE" fill-opacity="0.97647059" d="M299.469 130.306C300.547 130.242 301.153 130.004 301.776 130.924L301.572 131.458C300.805 132.125 300.575 132.152 299.597 132.521C298.491 132.859 298.269 133.035 297.273 132.644L297.072 132.176C297.499 130.84 298.179 130.706 299.469 130.306Z"/><path fill="#FEFFFE" fill-opacity="0.76862746" d="M168.732 159.189L169.005 159.528C168.363 160.197 166.487 161.125 165.563 161.698C164.114 162.599 161.006 166.03 159.478 165.989L159.515 165.517C161.497 162.832 166.048 160.96 168.504 159.342L168.732 159.189Z"/><path fill="#FEFFFE" fill-opacity="0.011764706" d="M259.252 119.172C258.823 120.475 253.512 123.574 251.948 123.861L251.858 123.584C252.77 122.728 257.389 119.647 258.673 118.884L259.252 119.172Z"/><path fill="#FEFFFE" fill-opacity="0.34901962" d="M142.484 140.945C144.729 137.701 145.383 140.969 148.149 139.505C148.897 139.109 149.852 139.221 150.688 139.304C149.616 139.793 149.422 139.289 148.529 139.891C146.34 140.332 146.4 141.622 143.76 141.12L143.009 140.994C142.732 140.947 142.831 140.964 142.484 140.945Z"/><path fill="#FEFFFE" fill-opacity="0.9254902" d="M189.622 78.1827C190.677 79.3384 187.358 83.0803 186.55 84.0872L186.245 83.7225C186.372 81.9931 188.393 79.3782 189.622 78.1827Z"/><path fill="#FEFFFE" fill-opacity="0.31764707" d="M171.833 157.08C172.428 156.351 179.264 151.678 180.337 151.011L180.81 151.302C177.804 153.467 174.81 155.649 171.829 157.848L171.833 157.08Z"/><path fill="#FEFFFE" fill-opacity="0.95294118" d="M154.296 139.5L155.172 139.763C154.11 141.17 152.853 141.645 151.553 142.667L151.031 141.747L151.189 140.856C152.027 139.975 153.107 140.27 154.296 139.5Z"/><path fill="#FEFFFE" fill-opacity="0.83529413" d="M253.24 85.1481L253.564 85.3439C253.404 86.3311 249.398 89.439 248.429 90.2507L248.058 90.0027C248.319 88.753 252.079 86.0701 253.24 85.1481Z"/><path fill="#FEFFFE" fill-opacity="0.72156864" d="M265.999 255.736C264.47 253.999 261.573 250.759 260.452 248.805L260.705 248.769C261.166 249.064 265.697 254.338 266.275 255.085L265.999 255.736Z"/><path fill="#FEFFFE" fill-opacity="0.83529413" d="M182.589 154.156L183.004 154.322C182.792 154.957 178.781 157.634 177.874 158.278L177.533 158.252L177.365 157.924C178.041 156.702 181.263 154.957 182.589 154.156Z"/><path fill="#FEFFFE" fill-opacity="0.93333334" d="M143.06 88.283C144.722 88.8171 145.391 91.8009 145.572 93.3514C143.918 92.5903 143.388 89.9476 143.06 88.283Z"/><path fill="#FEFFFE" fill-opacity="0.24705882" d="M151.031 141.747L151.553 142.667C150.632 143.538 147.055 145.772 145.859 145.764C147.241 143.758 150.468 143.727 151.031 141.747Z"/><path fill="#FEFFFE" fill-opacity="0.92156863" d="M236.324 228.934C237.938 229.469 238.76 230.801 238.847 232.46C237.469 231.821 236.469 230.45 236.324 228.934Z"/><path fill="#FEFFFE" fill-opacity="0.88627452" d="M157.663 226.897L157.989 227.279C158.023 228.632 157.108 230.404 156.522 231.628L156.114 231.117C156.209 229.962 157.16 227.993 157.663 226.897Z"/><path fill="#FEFFFE" fill-opacity="0.55686277" d="M274.873 107.906C275.859 106.243 276.112 105.783 277.475 104.449C276.927 105.668 276.643 106.276 275.936 107.408L276.019 107.901L276.73 108.198C276.127 108.315 275.491 108.068 274.873 107.906Z"/><path fill="#FEFFFE" fill-opacity="0.9137255" d="M132.303 242.161L132.871 242.354L132.898 242.953C132.382 244.028 132.086 244.265 131.27 245.081C131.166 245.01 130.936 244.72 130.841 244.61C130.992 243.616 131.656 242.978 132.303 242.161Z"/><path fill="#FEFFFE" fill-opacity="0.89803922" d="M136.062 135.366L137.048 135.399C137.554 136.644 137.53 136.926 137.549 138.213L136.692 138.146C136.664 137.855 136.167 135.855 136.062 135.366Z"/><path fill="#FEFFFE" fill-opacity="0.54509807" d="M143.85 259.107C144.252 257.819 144.74 256.04 145.344 254.893L145.787 255.077C145.305 256.474 144.832 257.874 144.367 259.277L143.85 259.107Z"/><path fill="#FEFFFE" fill-opacity="0.92941177" d="M137.842 227.683C138.119 228.033 138.328 228.288 138.573 228.664L139.104 228.908C137.985 229.199 138.036 229.388 137.592 230.441L137.086 229.811L137.842 227.683Z"/><path fill="#FEFFFE" fill-opacity="0.82745099" d="M268.249 124.149L268.816 124.369C268.71 125.11 268.205 125.431 267.617 126.078L267.106 126.246L266.887 126.003C267.165 125.193 267.659 124.783 268.249 124.149Z"/><path fill="#FEFFFE" fill-opacity="0.73333335" d="M137.086 229.811L137.592 230.441C137.425 231.061 137.149 232.362 136.543 232.588C136.335 231.668 136.775 230.755 137.086 229.811Z"/><path fill="#FEFFFE" fill-opacity="0.77254903" d="M149.917 228.079C148.988 228.28 148.259 229.017 147.288 228.471C147.867 227.893 148.522 227.842 149.345 227.643L149.917 228.079Z"/><path fill="#FEFFFE" fill-opacity="0.55686277" d="M168.732 159.189C169.379 158.668 171.074 157.594 171.833 157.08L171.829 157.848C170.866 158.393 169.927 158.91 169.005 159.528L168.732 159.189Z"/><path fill="#FEFFFE" fill-opacity="0.59607846" d="M180.337 151.011C181.079 150.372 181.741 149.656 182.656 149.42C182.601 150.153 181.394 150.892 180.81 151.302L180.337 151.011Z"/></svg>